#!OML:ASF E:\Steps\Project 1\Capture day 1\Session 2\Subject.ASF
:FULLY-SPECIFIED
:DEGREES
351
root 3.61666 17.177 7.96767 -152.86 -2.88668 177.279
lowerback -24.2769 -3.99543 -5.33955
upperback 1.04792 -4.01279 0.673474
thorax 15.3516 -2.33026 2.33223
lowerneck 0.125039 -4.81084 -2.6229
upperneck 24.1405 -4.21143 -0.405041
head 7.43763 -1.47986 0.151872
rclavicle 4.29375e-014 8.34896e-015
rhumerus -44.8561 -16.1398 -76.9612
rradius 37.6544
rwrist -6.75277
rhand -6.53101 -54.6064
rfingers 7.12502
rthumb 19.3218 -83.6665
lclavicle 4.29375e-014 8.34896e-015
lhumerus -36.3615 13.4006 70.3194
lradius 23.0684
lwrist -7.27133
lhand -20.1038 -11.8643
lfingers 7.12502
lthumb 6.23957 18.0238
rfemur -26.7024 8.01497 19.093
rtibia 12.3634
rfoot -20.4441 -1.65552
rtoes -5.61652
lfemur -30.8726 -12.7367 -20.8995
ltibia 18.5762
lfoot -9.00648 -2.93368
ltoes -7.96706
352
root 3.61308 17.181 7.95135 -152.911 -3.09686 177.191
lowerback -24.3254 -4.04375 -5.4489
upperback 1.00169 -4.04754 0.675376
thorax 15.3355 -2.35527 2.38216
lowerneck 0.143201 -4.85883 -2.73605
upperneck 24.1995 -4.2594 -0.387172
head 7.45882 -1.50595 0.174225
rclavicle -2.18663e-014 8.54774e-015
rhumerus -44.7001 -16.0166 -76.9601
rradius 37.2008
rwrist -6.34899
rhand -6.21776 -55.4528
rfingers 7.12502
rthumb 19.623 -84.4825
lclavicle -2.18663e-014 8.54774e-015
lhumerus -36.3159 13.0471 70.7486
lradius 23.8506
lwrist -7.01031
lhand -20.2217 -11.9049
lfingers 7.12502
lthumb 6.12575 17.9865
rfemur -26.4043 7.86878 19.0521
rtibia 12.1017
rfoot -20.3635 -1.73745
rtoes -5.51644
lfemur -30.5442 -12.5653 -21.0744
ltibia 18.1887
lfoot -8.87216 -3.22033
ltoes -8.91745
353
root 3.60925 17.1813 7.93785 -152.923 -3.23537 177.183
lowerback -24.4586 -4.03145 -5.45178
upperback 1.02082 -4.02108 0.669715
thorax 15.4325 -2.34447 2.38042
lowerneck 0.0822606 -4.86899 -2.86563
upperneck 24.0405 -4.30353 -0.348227
head 7.42197 -1.54579 0.204191
rclavicle -1.77912e-014 -2.78299e-015
rhumerus -44.4587 -15.833 -77.0875
rradius 36.8726
rwrist -6.05623
rhand -5.48598 -56.095
rfingers 7.12502
rthumb 20.3264 -85.0513
lclavicle -1.77912e-014 -2.78299e-015
lhumerus -36.1397 12.4494 71.2935
lradius 24.8407
lwrist -6.36838
lhand -20.1653 -11.5893
lfingers 7.12502
lthumb 6.18019 18.3006
rfemur -26.2423 7.67948 19.1047
rtibia 11.9787
rfoot -20.3548 -1.7412
rtoes -5.84483
lfemur -30.2682 -12.4508 -21.1339
ltibia 17.7691
lfoot -8.69369 -3.42749
ltoes -8.26412
354
root 3.60123 17.1793 7.92235 -153.021 -3.37063 177.343
lowerback -24.5067 -3.95374 -5.25179
upperback 0.997279 -3.97962 0.700523
thorax 15.4145 -2.31118 2.31681
lowerneck 0.137375 -4.94659 -2.92413
upperneck 23.9917 -4.38127 -0.47953
head 7.39633 -1.5982 0.167362
rclavicle -1.56046e-014 1.51076e-014
rhumerus -44.442 -15.358 -77.2584
rradius 36.6401
rwrist -5.8626
rhand -5.15157 -55.2904
rfingers 7.12502
rthumb 20.6478 -84.2121
lclavicle -1.56046e-014 1.51076e-014
lhumerus -36.1383 11.6906 71.849
lradius 25.9471
lwrist -5.37474
lhand -20.2535 -11.688
lfingers 7.12502
lthumb 6.09504 18.2043
rfemur -25.9768 7.59092 19.3199
rtibia 11.8206
rfoot -20.4032 -1.69241
rtoes -5.70651
lfemur -29.928 -12.4908 -20.9839
ltibia 17.3857
lfoot -8.53371 -3.47816
ltoes -6.61629
355
root 3.59829 17.1782 7.91571 -153.066 -3.58383 177.43
lowerback -24.454 -3.8687 -5.17595
upperback 0.897951 -3.89722 0.675693
thorax 15.2479 -2.26646 2.28145
lowerneck 0.209305 -5.12032 -2.82097
upperneck 24.1097 -4.58165 -0.578015
head 7.42027 -1.68236 0.10706
rclavicle -2.41523e-014 1.13307e-014
rhumerus -44.616 -15.236 -77.2669
rradius 36.3317
rwrist -5.32502
rhand -4.96912 -53.5226
rfingers 7.12502
rthumb 20.8231 -82.4252
lclavicle -2.41523e-014 1.13307e-014
lhumerus -36.1958 10.8447 72.3221
lradius 27.0467
lwrist -4.65325
lhand -20.5404 -11.9587
lfingers 7.12502
lthumb 5.81807 17.9414
rfemur -25.7688 7.6397 19.4674
rtibia 11.6199
rfoot -20.4037 -1.81852
rtoes -5.30986
lfemur -29.7009 -12.387 -20.9152
ltibia 17.0788
lfoot -8.42663 -3.7258
ltoes -6.55773
356
root 3.59528 17.1768 7.90532 -153.066 -3.59237 177.435
lowerback -24.6178 -3.68724 -5.18305
upperback 0.942585 -3.62399 0.532864
thorax 15.3596 -2.13912 2.21574
lowerneck 0.0625104 -5.23794 -2.62812
upperneck 24.0623 -4.81059 -0.42933
head 7.42988 -1.77014 0.105242
rclavicle 1.47101e-014 -7.95139e-016
rhumerus -44.522 -15.5605 -77.3359
rradius 36.0666
rwrist -4.75962
rhand -5.08259 -52.3094
rfingers 7.12502
rthumb 20.7141 -81.2239
lclavicle 1.47101e-014 -7.95139e-016
lhumerus -35.8852 10.2292 72.7071
lradius 28.0318
lwrist -4.42612
lhand -20.6063 -11.9481
lfingers 7.12502
lthumb 5.75447 17.9538
rfemur -25.6617 7.74311 19.4546
rtibia 11.481
rfoot -20.3479 -1.90308
rtoes -5.32802
lfemur -29.4046 -12.162 -21.0015
ltibia 16.613
lfoot -8.3548 -3.9238
ltoes -7.13212
357
root 3.59393 17.1758 7.89453 -152.963 -3.49215 177.325
lowerback -24.8907 -3.55127 -5.34499
upperback 1.01697 -3.35824 0.39642
thorax 15.583 -2.03 2.23822
lowerneck -0.189236 -5.23306 -2.53516
upperneck 23.8268 -4.90875 -0.242696
head 7.39795 -1.81526 0.138127
rclavicle -1.05356e-014 -1.25234e-014
rhumerus -44.1853 -15.5083 -77.6778
rradius 36.1044
rwrist -4.79764
rhand -5.52833 -52.3347
rfingers 7.12502
rthumb 20.2857 -81.2953
lclavicle -1.05356e-014 -1.25234e-014
lhumerus -35.4261 9.78032 73.1153
lradius 28.9288
lwrist -4.20263
lhand -20.5371 -12.2702
lfingers 7.12502
lthumb 5.82127 17.6299
rfemur -25.8315 7.84076 19.2703
rtibia 11.6755
rfoot -20.4462 -1.99785
rtoes -5.73246
lfemur -29.2064 -11.8839 -21.2201
ltibia 16.1012
lfoot -8.14277 -4.16892
ltoes -5.99931
358
root 3.59436 17.1752 7.88634 -152.9 -3.42425 177.164
lowerback -25.1068 -3.50744 -5.59519
upperback 1.06376 -3.19939 0.310631
thorax 15.7595 -1.97886 2.33269
lowerneck -0.323691 -5.20684 -2.51658
upperneck 23.5124 -4.94858 -0.180632
head 7.31834 -1.84977 0.149383
rclavicle 3.13583e-014 7.15625e-015
rhumerus -43.8433 -15.2519 -77.9266
rradius 36.0074
rwrist -4.64152
rhand -5.56764 -52.4801
rfingers 7.12502
rthumb 20.2479 -81.4448
lclavicle 3.13583e-014 7.15625e-015
lhumerus -35.1497 9.14755 73.6264
lradius 29.9564
lwrist -3.59299
lhand -20.8688 -12.5185
lfingers 7.12502
lthumb 5.50105 17.3901
rfemur -26.0054 7.98245 19.0231
rtibia 11.9785
rfoot -20.6232 -2.24618
rtoes -6.15794
lfemur -28.9812 -11.7254 -21.4485
ltibia 15.5825
lfoot -7.86792 -4.29781
ltoes -4.70622
359
root 3.59378 17.1748 7.87923 -152.944 -3.40006 177.083
lowerback -25.221 -3.5089 -5.77809
upperback 1.09131 -3.13587 0.295418
thorax 15.8633 -1.96719 2.43907
lowerneck -0.335372 -5.18703 -2.50601
upperneck 23.2702 -4.94561 -0.256341
head 7.23779 -1.86705 0.123112
rclavicle 4.22417e-015 -2.78299e-015
rhumerus -43.5892 -14.8565 -78.0854
rradius 35.9148
rwrist -4.2974
rhand -5.58157 -52.9436
rfingers 7.12502
rthumb 20.2346 -81.9096
lclavicle 4.22417e-015 -2.78299e-015
lhumerus -35.1295 8.60986 74.1278
lradius 31.123
lwrist -2.91399
lhand -21.4368 -12.6071
lfingers 7.12502
lthumb 4.95257 17.315
rfemur -25.9156 8.16789 18.8763
rtibia 11.9702
rfoot -20.6553 -2.4128
rtoes -5.80074
lfemur -28.6037 -11.6222 -21.5874
ltibia 15.0105
lfoot -7.6191 -4.3001
ltoes -4.13691
360
root 3.591 17.1767 7.87187 -153.022 -3.44736 177.108
lowerback -25.1838 -3.48543 -5.78805
upperback 1.06113 -3.10635 0.291567
thorax 15.8023 -1.95414 2.45397
lowerneck -0.289275 -5.12234 -2.55023
upperneck 23.0629 -4.87555 -0.277036
head 7.16132 -1.84735 0.129708
rclavicle -9.29318e-015 3.97569e-015
rhumerus -43.5601 -14.3617 -78.3538
rradius 36.2823
rwrist -4.31761
rhand -5.90337 -53.9809
rfingers 7.12502
rthumb 19.9252 -82.9794
lclavicle -9.29318e-015 3.97569e-015
lhumerus -35.1589 8.37373 74.4666
lradius 32.1664
lwrist -2.5938
lhand -21.8162 -12.9455
lfingers 7.12502
lthumb 4.58628 16.9848
rfemur -25.7204 8.26658 18.8902
rtibia 11.8137
rfoot -20.6573 -2.48108
rtoes -5.47203
lfemur -28.2085 -11.506 -21.5993
ltibia 14.4459
lfoot -7.42886 -4.36233
ltoes -4.59685
361
root 3.58764 17.1785 7.86115 -153.113 -3.59583 177.114
lowerback -25.1423 -3.42771 -5.74275
upperback 1.06439 -3.03633 0.225299
thorax 15.7683 -1.9151 2.37946
lowerneck -0.413493 -5.13149 -2.47392
upperneck 22.7797 -4.96478 -0.206958
head 7.08994 -1.89815 0.131206
rclavicle 2.72335e-014 -1.17283e-014
rhumerus -43.5382 -14.2457 -78.5572
rradius 36.6027
rwrist -4.30317
rhand -6.15535 -54.3203
rfingers 7.12502
rthumb 19.683 -83.3438
lclavicle 2.72335e-014 -1.17283e-014
lhumerus -34.9371 7.93975 74.7951
lradius 33.0582
lwrist -2.27831
lhand -22.0468 -13.1473
lfingers 7.12502
lthumb 4.36362 16.7878
rfemur -25.5303 8.10926 18.9743
rtibia 11.7439
rfoot -20.7235 -2.53548
rtoes -6.01994
lfemur -27.8377 -11.494 -21.6031
ltibia 13.9509
lfoot -7.32046 -4.47455
ltoes -6.98207
362
root 3.5855 17.1777 7.84792 -153.187 -3.73182 177.025
lowerback -25.1999 -3.40849 -5.83346
upperback 1.06345 -2.97188 0.156579
thorax 15.7949 -1.89146 2.37376
lowerneck -0.607994 -5.2562 -2.29918
upperneck 22.724 -5.1571 -0.306861
head 7.09927 -1.9938 0.0528068
rclavicle -7.35503e-015 1.05356e-014
rhumerus -43.4614 -14.1172 -78.6677
rradius 36.6815
rwrist -4.24201
rhand -6.11033 -53.9252
rfingers 7.12502
rthumb 19.7263 -82.9443
lclavicle -7.35503e-015 1.05356e-014
lhumerus -34.815 7.46402 75.1515
lradius 33.9655
lwrist -1.96262
lhand -22.2271 -13.403
lfingers 7.12502
lthumb 4.18943 16.5355
rfemur -25.3408 7.92581 18.9482
rtibia 11.6701
rfoot -20.747 -2.56697
rtoes -6.19684
lfemur -27.4222 -11.488 -21.7275
ltibia 13.3742
lfoot -7.14057 -4.59526
ltoes -8.33357
363
root 3.58526 17.1771 7.83756 -153.179 -3.81801 176.903
lowerback -25.332 -3.44104 -6.0121
upperback 0.981751 -2.95914 0.120349
thorax 15.7778 -1.90076 2.43489
lowerneck -0.463005 -5.27131 -2.33403
upperneck 22.7306 -5.14252 -0.390057
head 7.07508 -1.98903 0.0366292
rclavicle -1.0635e-014 1.98785e-015
rhumerus -43.4733 -13.6949 -78.7987
rradius 36.8261
rwrist -4.24321
rhand -5.768 -53.4077
rfingers 7.12502
rthumb 20.0554 -82.3927
lclavicle -1.0635e-014 1.98785e-015
lhumerus -34.926 7.15234 75.4455
lradius 34.9047
lwrist -1.65458
lhand -22.4301 -13.7882
lfingers 7.12502
lthumb 3.99343 16.1541
rfemur -25.2437 7.95173 18.8006
rtibia 11.5937
rfoot -20.7672 -2.71199
rtoes -5.88732
lfemur -27.0698 -11.297 -21.9096
ltibia 12.7662
lfoot -6.93381 -4.83319
ltoes -8.13251
364
root 3.5862 17.1772 7.82793 -153.176 -3.97371 176.817
lowerback -25.4262 -3.46521 -6.15169
upperback 0.904523 -2.94941 0.0920132
thorax 15.7427 -1.90787 2.4832
lowerneck -0.322035 -5.22456 -2.44141
upperneck 22.5934 -5.0888 -0.327591
head 7.01028 -1.96779 0.0821026
rclavicle 9.74045e-015 1.86858e-014
rhumerus -43.4572 -13.3303 -78.9489
rradius 37.016
rwrist -4.48879
rhand -5.90456 -53.4406
rfingers 7.12502
rthumb 19.9241 -82.4392
lclavicle 9.74045e-015 1.86858e-014
lhumerus -34.9552 6.7987 75.7307
lradius 35.8536
lwrist -1.3168
lhand -22.6636 -13.8385
lfingers 7.12502
lthumb 3.76795 16.1079
rfemur -25.1059 8.02018 18.7085
rtibia 11.4549
rfoot -20.7997 -2.93743
rtoes -5.73621
lfemur -26.7642 -10.985 -22.0583
ltibia 12.2474
lfoot -6.66734 -5.29825
ltoes -7.01433
365
root 3.58573 17.1767 7.81399 -153.214 -4.17022 176.792
lowerback -25.4878 -3.4014 -6.18693
upperback 0.861454 -2.84487 0.00651461
thorax 15.7111 -1.8608 2.44284
lowerneck -0.427612 -5.26621 -2.21713
upperneck 22.4962 -5.1724 -0.386197
head 6.98835 -2.00107 0.0186339
rclavicle 1.88845e-014 -5.76476e-015
rhumerus -43.4441 -13.4049 -79.037
rradius 37.1643
rwrist -4.76394
rhand -6.31068 -53.5642
rfingers 7.12502
rthumb 19.5337 -82.603
lclavicle 1.88845e-014 -5.76476e-015
lhumerus -34.8804 6.3637 75.9971
lradius 36.8091
lwrist -1.10995
lhand -22.8375 -13.5254
lfingers 7.12502
lthumb 3.59999 16.424
rfemur -24.828 7.98828 18.7456
rtibia 11.1751
rfoot -20.7905 -3.09384
rtoes -5.65665
lfemur -26.4322 -10.7109 -22.1496
ltibia 11.7812
lfoot -6.42187 -5.79181
ltoes -6.51353
